<svg xmlns="http://www.w3.org/2000/svg" width="38" height="38" viewBox="0 0 38 38" fill="none">
  <path d="M1.87091 19C3.36005 10.893 10.4628 4.75 19.0005 4.75C27.538 4.75 34.6408 10.893 36.1299 19C34.6408 27.107 27.538 33.25 19.0005 33.25C10.4628 33.25 3.36005 27.107 1.87091 19ZM19.0005 26.9167C23.3727 26.9167 26.9171 23.3722 26.9171 19C26.9171 14.6278 23.3727 11.0833 19.0005 11.0833C14.6281 11.0833 11.0837 14.6278 11.0837 19C11.0837 23.3722 14.6281 26.9167 19.0005 26.9167ZM19.0005 23.75C16.377 23.75 14.2504 21.6234 14.2504 19C14.2504 16.3766 16.377 14.25 19.0005 14.25C21.6237 14.25 23.7505 16.3766 23.7505 19C23.7505 21.6234 21.6237 23.75 19.0005 23.75Z" fill="white"/>
</svg>