<svg width="289" height="175" viewBox="0 0 289 175" fill="none" xmlns="http://www.w3.org/2000/svg">
<path d="M1.448 32.144L11.848 1.808H16.424L6.056 32.144H1.448ZM13.7293 32.144L24.1293 1.808H28.7053L18.3373 32.144H13.7293ZM26.0105 32.144L36.4105 1.808H40.9865L30.6185 32.144H26.0105ZM49.4375 3.6H54.1415L58.8135 18.576L63.5495 3.6H68.2215L72.9255 18.512L77.5975 3.6H82.2695L75.2615 26H70.5575L65.8855 11.024L61.1495 26H56.4775L49.4375 3.6ZM84.3293 26V3.6H102.825V7.728H88.8093V12.72H102.313V16.848H88.8093V21.84H102.825V26H84.3293ZM118.411 14.832C118.411 19.152 121.675 22.192 126.219 22.192C129.451 22.192 131.979 20.688 133.227 18.256H137.963C136.587 23.28 131.979 26.48 126.219 26.48C119.211 26.48 113.931 21.488 113.931 14.832C113.931 8.08 119.179 3.12 126.219 3.12C131.979 3.12 136.555 6.32 137.963 11.344H133.227C132.011 8.88 129.483 7.408 126.219 7.408C121.643 7.408 118.411 10.416 118.411 14.832ZM156.662 26L151.702 19.472H145.622V26H141.142V3.6H152.662C157.462 3.6 161.43 6.768 161.43 11.536C161.43 14.672 159.382 17.296 156.598 18.608L162.23 26H156.662ZM156.95 11.536C156.95 9.328 155.158 7.728 152.662 7.728H145.622V15.28H152.662C155.126 15.28 156.95 13.648 156.95 11.536ZM164.204 26V3.6H182.7V7.728H168.684V12.72H182.188V16.848H168.684V21.84H182.7V26H164.204ZM184.238 26L195.47 3.6H200.462L211.758 26H206.766L204.11 20.72H191.854L189.198 26H184.238ZM193.902 16.624H202.03L197.966 8.56L193.902 16.624ZM217.732 26V7.728H209.796V3.6H230.084V7.728H222.212V26H217.732ZM232.798 26V3.6H251.294V7.728H237.278V12.72H250.782V16.848H237.278V21.84H251.294V26H232.798ZM0.488 61L11.72 38.6H16.712L28.008 61H23.016L20.36 55.72H8.104L5.448 61H0.488ZM10.152 51.624H18.28L14.216 43.56L10.152 51.624ZM29.5168 61V38.6H40.1088C46.3488 38.6 51.6928 43.144 51.6928 49.768C51.6928 56.168 46.0288 61 40.1088 61H29.5168ZM47.2128 49.768C47.2128 45.704 44.2048 42.888 40.1088 42.888H33.9968V56.712H40.1088C44.1728 56.712 47.2128 53.832 47.2128 49.768ZM74.3828 54.76C74.3828 58.472 70.7668 61.48 64.7828 61.48C58.7668 61.48 54.0948 58.536 53.7747 54.12H58.4468C58.9268 56.264 61.4548 57.64 64.7188 57.64C67.7588 57.64 69.9028 56.36 69.9028 54.632C69.9028 49.288 54.0628 54.728 54.0628 44.488C54.0628 40.552 58.2228 38.12 63.7268 38.12C69.5508 38.12 73.6468 40.904 73.9988 44.968H69.3588C68.9748 43.24 66.6068 41.832 63.7268 41.832C60.5908 41.832 58.5428 43.016 58.5428 44.616C58.5428 49.576 74.3828 44.392 74.3828 54.76ZM76.687 65.576L77.359 57.256H82.031L80.431 65.576H76.687ZM92.923 61V38.6H104.379C109.179 38.6 113.211 41.768 113.211 46.536C113.211 51.048 108.955 54.472 104.379 54.472H97.403V61H92.923ZM108.731 46.536C108.731 44.328 106.875 42.728 104.379 42.728H97.403V50.28H104.379C106.843 50.28 108.731 48.648 108.731 46.536ZM131.881 61L126.921 54.472H120.841V61H116.361V38.6H127.881C132.681 38.6 136.649 41.768 136.649 46.536C136.649 49.672 134.601 52.296 131.817 53.608L137.449 61H131.881ZM132.169 46.536C132.169 44.328 130.377 42.728 127.881 42.728H120.841V50.28H127.881C130.345 50.28 132.169 48.648 132.169 46.536ZM138.243 49.832C138.243 43.08 143.492 38.12 150.532 38.12C157.54 38.12 162.788 42.824 162.788 49.832C162.788 56.744 157.54 61.48 150.532 61.48C143.524 61.48 138.243 56.488 138.243 49.832ZM142.724 49.832C142.724 54.152 145.988 57.192 150.532 57.192C155.172 57.192 158.308 54.152 158.308 49.832C158.308 45.416 155.172 42.408 150.532 42.408C145.956 42.408 142.724 45.416 142.724 49.832ZM170.372 46.568V61H165.892V38.6H171.588L178.82 55.656L186.02 38.6H191.716V61H187.236V46.632L181.06 61H176.548L170.372 46.568ZM194.837 49.832C194.837 43.08 200.085 38.12 207.125 38.12C214.133 38.12 219.381 42.824 219.381 49.832C219.381 56.744 214.133 61.48 207.125 61.48C200.117 61.48 194.837 56.488 194.837 49.832ZM199.317 49.832C199.317 54.152 202.581 57.192 207.125 57.192C211.765 57.192 214.901 54.152 214.901 49.832C214.901 45.416 211.765 42.408 207.125 42.408C202.549 42.408 199.317 45.416 199.317 49.832ZM0.488 73.6H5.448L14.216 91.04L23.016 73.6H28.008L16.712 96H11.72L0.488 73.6ZM33.9648 73.6V96H29.4848V73.6H33.9648ZM38.0168 96V73.6H48.6088C54.8488 73.6 60.1928 78.144 60.1928 84.768C60.1928 91.168 54.5288 96 48.6088 96H38.0168ZM55.7128 84.768C55.7128 80.704 52.7048 77.888 48.6088 77.888H42.4968V91.712H48.6088C52.6728 91.712 55.7128 88.832 55.7128 84.768ZM63.2668 96V73.6H81.7628V77.728H67.7468V82.72H81.2508V86.848H67.7468V91.84H81.7628V96H63.2668ZM84.6497 84.832C84.6497 78.08 89.8978 73.12 96.9378 73.12C103.946 73.12 109.194 77.824 109.194 84.832C109.194 91.744 103.946 96.48 96.9378 96.48C89.9298 96.48 84.6497 91.488 84.6497 84.832ZM89.1298 84.832C89.1298 89.152 92.3938 92.192 96.9378 92.192C101.578 92.192 104.714 89.152 104.714 84.832C104.714 80.416 101.578 77.408 96.9378 77.408C92.3618 77.408 89.1298 80.416 89.1298 84.832ZM131.914 89.76C131.914 93.472 128.298 96.48 122.314 96.48C116.298 96.48 111.626 93.536 111.306 89.12H115.978C116.458 91.264 118.986 92.64 122.25 92.64C125.29 92.64 127.434 91.36 127.434 89.632C127.434 84.288 111.594 89.728 111.594 79.488C111.594 75.552 115.754 73.12 121.258 73.12C127.082 73.12 131.178 75.904 131.53 79.968H126.89C126.506 78.24 124.138 76.832 121.258 76.832C118.122 76.832 116.074 78.016 116.074 79.616C116.074 84.576 131.914 79.392 131.914 89.76ZM134.218 100.576L134.89 92.256H139.562L137.962 100.576H134.218ZM170.07 89.76C170.07 93.472 166.454 96.48 160.47 96.48C154.454 96.48 149.782 93.536 149.462 89.12H154.134C154.614 91.264 157.142 92.64 160.406 92.64C163.446 92.64 165.59 91.36 165.59 89.632C165.59 84.288 149.75 89.728 149.75 79.488C149.75 75.552 153.91 73.12 159.414 73.12C165.238 73.12 169.334 75.904 169.686 79.968H165.046C164.662 78.24 162.294 76.832 159.414 76.832C156.278 76.832 154.23 78.016 154.23 79.616C154.23 84.576 170.07 79.392 170.07 89.76ZM173.267 96V73.6H177.747V82.72H190.003V73.6H194.483V96H190.003V86.848H177.747V96H173.267ZM197.525 84.832C197.525 78.08 202.773 73.12 209.813 73.12C216.821 73.12 222.069 77.824 222.069 84.832C222.069 91.744 216.821 96.48 209.813 96.48C202.805 96.48 197.525 91.488 197.525 84.832ZM202.005 84.832C202.005 89.152 205.269 92.192 209.813 92.192C214.453 92.192 217.589 89.152 217.589 84.832C217.589 80.416 214.453 77.408 209.813 77.408C205.237 77.408 202.005 80.416 202.005 84.832ZM240.693 96L235.733 89.472H229.653V96H225.173V73.6H236.693C241.493 73.6 245.461 76.768 245.461 81.536C245.461 84.672 243.413 87.296 240.629 88.608L246.261 96H240.693ZM240.981 81.536C240.981 79.328 239.189 77.728 236.693 77.728H229.653V85.28H236.693C239.157 85.28 240.981 83.648 240.981 81.536ZM254.42 96V77.728H246.484V73.6H266.772V77.728H258.9V96H254.42ZM6.536 119.832C6.536 124.152 9.8 127.192 14.344 127.192C17.576 127.192 20.104 125.688 21.352 123.256H26.088C24.712 128.28 20.104 131.48 14.344 131.48C7.336 131.48 2.056 126.488 2.056 119.832C2.056 113.08 7.304 108.12 14.344 108.12C20.104 108.12 24.68 111.32 26.088 116.344H21.352C20.136 113.88 17.608 112.408 14.344 112.408C9.768 112.408 6.536 115.416 6.536 119.832ZM27.6497 119.832C27.6497 113.08 32.8978 108.12 39.9378 108.12C46.9458 108.12 52.1938 112.824 52.1938 119.832C52.1938 126.744 46.9458 131.48 39.9378 131.48C32.9298 131.48 27.6497 126.488 27.6497 119.832ZM32.1298 119.832C32.1298 124.152 35.3938 127.192 39.9378 127.192C44.5778 127.192 47.7138 124.152 47.7138 119.832C47.7138 115.416 44.5778 112.408 39.9378 112.408C35.3618 112.408 32.1298 115.416 32.1298 119.832ZM59.778 116.056V131H55.298V108.6H58.882L72.802 123.448V108.6H77.282V131H73.666L59.778 116.056ZM87.8573 131V112.728H79.9213V108.6H100.209V112.728H92.3373V131H87.8573ZM102.923 131V108.6H121.419V112.728H107.403V117.72H120.907V121.848H107.403V126.84H121.419V131H102.923ZM129.997 116.056V131H125.517V108.6H129.101L143.021 123.448V108.6H147.501V131H143.885L129.997 116.056ZM158.076 131V112.728H150.14V108.6H170.428V112.728H162.556V131H158.076ZM178.582 131L189.814 108.6H194.806L206.102 131H201.11L198.454 125.72H186.198L183.542 131H178.582ZM188.246 121.624H196.374L192.31 113.56L188.246 121.624ZM212.091 116.056V131H207.611V108.6H211.195L225.115 123.448V108.6H229.595V131H225.979L212.091 116.056ZM233.642 131V108.6H244.234C250.474 108.6 255.818 113.144 255.818 119.768C255.818 126.168 250.154 131 244.234 131H233.642ZM251.338 119.768C251.338 115.704 248.33 112.888 244.234 112.888H238.122V126.712H244.234C248.298 126.712 251.338 123.832 251.338 119.768ZM7.528 151.568V166H3.048V143.6H8.744L15.976 160.656L23.176 143.6H28.872V166H24.392V151.632L18.216 166H13.704L7.528 151.568ZM31.9935 154.832C31.9935 148.08 37.2415 143.12 44.2815 143.12C51.2895 143.12 56.5375 147.824 56.5375 154.832C56.5375 161.744 51.2895 166.48 44.2815 166.48C37.2735 166.48 31.9935 161.488 31.9935 154.832ZM36.4735 154.832C36.4735 159.152 39.7375 162.192 44.2815 162.192C48.9215 162.192 52.0575 159.152 52.0575 154.832C52.0575 150.416 48.9215 147.408 44.2815 147.408C39.7055 147.408 36.4735 150.416 36.4735 154.832ZM75.1618 166L70.2018 159.472H64.1218V166H59.6418V143.6H71.1618C75.9618 143.6 79.9298 146.768 79.9298 151.536C79.9298 154.672 77.8818 157.296 75.0978 158.608L80.7298 166H75.1618ZM75.4498 151.536C75.4498 149.328 73.6578 147.728 71.1618 147.728H64.1218V155.28H71.1618C73.6258 155.28 75.4498 153.648 75.4498 151.536ZM82.7043 166V143.6H101.2V147.728H87.1843V152.72H100.688V156.848H87.1843V161.84H101.2V166H82.7043Z" fill="white"/>
<circle cx="129" cy="155" r="15.5" stroke="white"/>
<path d="M127.995 161.57C128.385 161.961 129.018 161.961 129.409 161.57L135.773 155.207C136.163 154.816 136.163 154.183 135.773 153.792C135.382 153.402 134.749 153.402 134.359 153.792L128.702 159.449L123.045 153.792C122.655 153.402 122.021 153.402 121.631 153.792C121.24 154.183 121.24 154.816 121.631 155.207L127.995 161.57ZM127.702 149.137L127.702 160.863L129.702 160.863L129.702 149.137L127.702 149.137Z" fill="white"/>
</svg>
