<svg width="822" height="210" viewBox="0 0 822 210" fill="none" xmlns="http://www.w3.org/2000/svg">
<circle cx="730" cy="32" r="28.5" stroke="white"/>
<path d="M728.399 43.688C728.985 44.2738 729.935 44.2738 730.52 43.688L740.066 34.1421C740.652 33.5563 740.652 32.6065 740.066 32.0207C739.48 31.435 738.531 31.435 737.945 32.0207L729.46 40.506L720.974 32.0207C720.389 31.435 719.439 31.435 718.853 32.0207C718.267 32.6065 718.267 33.5563 718.853 34.1421L728.399 43.688ZM727.96 21.3727L727.96 42.6273L730.96 42.6273L730.96 21.3727L727.96 21.3727Z" fill="white"/>
<path d="M0.896 64.288L21.696 3.616H30.848L10.112 64.288H0.896ZM25.4585 64.288L46.2585 3.616H55.4105L34.6745 64.288H25.4585ZM50.021 64.288L70.821 3.616H79.973L59.237 64.288H50.021ZM96.875 7.2H106.283L115.627 37.152L125.099 7.2H134.443L143.851 37.024L153.195 7.2H162.539L148.523 52H139.115L129.771 22.048L120.299 52H110.955L96.875 7.2ZM166.659 52V7.2H203.651V15.456H175.619V25.44H202.627V33.696H175.619V43.68H203.651V52H166.659ZM234.822 29.664C234.822 38.304 241.35 44.384 250.438 44.384C256.902 44.384 261.958 41.376 264.454 36.512H273.926C271.174 46.56 261.958 52.96 250.438 52.96C236.422 52.96 225.862 42.976 225.862 29.664C225.862 16.16 236.358 6.24 250.438 6.24C261.958 6.24 271.11 12.64 273.926 22.688H264.454C262.022 17.76 256.966 14.816 250.438 14.816C241.286 14.816 234.822 20.832 234.822 29.664ZM311.324 52L301.404 38.944H289.244V52H280.284V7.2H303.324C312.924 7.2 320.86 13.536 320.86 23.072C320.86 29.344 316.764 34.592 311.196 37.216L322.46 52H311.324ZM311.9 23.072C311.9 18.656 308.316 15.456 303.324 15.456H289.244V30.56H303.324C308.252 30.56 311.9 27.296 311.9 23.072ZM326.409 52V7.2H363.401V15.456H335.369V25.44H362.377V33.696H335.369V43.68H363.401V52H326.409ZM366.476 52L388.94 7.2H398.924L421.516 52H411.532L406.22 41.44H381.708L376.396 52H366.476ZM385.804 33.248H402.06L393.932 17.12L385.804 33.248ZM433.465 52V15.456H417.593V7.2H458.169V15.456H442.425V52H433.465ZM463.596 52V7.2H500.588V15.456H472.556V25.44H499.564V33.696H472.556V43.68H500.588V52H463.596ZM519.663 52L542.128 7.2H552.112L574.704 52H564.72L559.408 41.44H534.896L529.584 52H519.663ZM538.992 33.248H555.248L547.12 17.12L538.992 33.248ZM577.721 52V7.2H598.905C611.385 7.2 622.073 16.288 622.073 29.536C622.073 42.336 610.745 52 598.905 52H577.721ZM613.113 29.536C613.113 21.408 607.097 15.776 598.905 15.776H586.681V43.424H598.905C607.033 43.424 613.113 37.664 613.113 29.536ZM667.453 39.52C667.453 46.944 660.221 52.96 648.253 52.96C636.221 52.96 626.877 47.072 626.237 38.24H635.581C636.541 42.528 641.597 45.28 648.125 45.28C654.205 45.28 658.493 42.72 658.493 39.264C658.493 28.576 626.813 39.456 626.813 18.976C626.813 11.104 635.133 6.24 646.141 6.24C657.789 6.24 665.981 11.808 666.685 19.936H657.405C656.637 16.48 651.901 13.664 646.141 13.664C639.869 13.664 635.773 16.032 635.773 19.232C635.773 29.152 667.453 18.784 667.453 39.52ZM672.062 61.152L673.406 44.512H682.75L679.55 61.152H672.062ZM4.096 122V77.2H27.008C36.608 77.2 44.672 83.536 44.672 93.072C44.672 102.096 36.16 108.944 27.008 108.944H13.056V122H4.096ZM35.712 93.072C35.712 88.656 32 85.456 27.008 85.456H13.056V100.56H27.008C31.936 100.56 35.712 97.296 35.712 93.072ZM82.011 122L72.091 108.944H59.931V122H50.971V77.2H74.011C83.611 77.2 91.547 83.536 91.547 93.072C91.547 99.344 87.451 104.592 81.883 107.216L93.147 122H82.011ZM82.587 93.072C82.587 88.656 79.003 85.456 74.011 85.456H59.931V100.56H74.011C78.939 100.56 82.587 97.296 82.587 93.072ZM94.737 99.664C94.737 86.16 105.233 76.24 119.313 76.24C133.329 76.24 143.825 85.648 143.825 99.664C143.825 113.488 133.329 122.96 119.313 122.96C105.297 122.96 94.737 112.976 94.737 99.664ZM103.697 99.664C103.697 108.304 110.225 114.384 119.313 114.384C128.593 114.384 134.865 108.304 134.865 99.664C134.865 90.832 128.593 84.816 119.313 84.816C110.161 84.816 103.697 90.832 103.697 99.664ZM158.994 93.136V122H150.034V77.2H161.426L175.89 111.312L190.29 77.2H201.682V122H192.722V93.264L180.37 122H171.346L158.994 93.136ZM207.924 99.664C207.924 86.16 218.421 76.24 232.501 76.24C246.517 76.24 257.013 85.648 257.013 99.664C257.013 113.488 246.517 122.96 232.501 122.96C218.485 122.96 207.924 112.976 207.924 99.664ZM216.885 99.664C216.885 108.304 223.413 114.384 232.501 114.384C241.781 114.384 248.053 108.304 248.053 99.664C248.053 90.832 241.781 84.816 232.501 84.816C223.349 84.816 216.885 90.832 216.885 99.664ZM274.101 77.2H284.021L301.557 112.08L319.157 77.2H329.141L306.549 122H296.565L274.101 77.2ZM341.055 77.2V122H332.095V77.2H341.055ZM349.159 122V77.2H370.343C382.823 77.2 393.511 86.288 393.511 99.536C393.511 112.336 382.183 122 370.343 122H349.159ZM384.551 99.536C384.551 91.408 378.535 85.776 370.343 85.776H358.119V113.424H370.343C378.471 113.424 384.551 107.664 384.551 99.536ZM399.659 122V77.2H436.651V85.456H408.619V95.44H435.627V103.696H408.619V113.68H436.651V122H399.659ZM442.424 99.664C442.424 86.16 452.921 76.24 467.001 76.24C481.017 76.24 491.513 85.648 491.513 99.664C491.513 113.488 481.017 122.96 467.001 122.96C452.985 122.96 442.424 112.976 442.424 99.664ZM451.385 99.664C451.385 108.304 457.913 114.384 467.001 114.384C476.281 114.384 482.553 108.304 482.553 99.664C482.553 90.832 476.281 84.816 467.001 84.816C457.849 84.816 451.385 90.832 451.385 99.664ZM536.953 109.52C536.953 116.944 529.721 122.96 517.753 122.96C505.721 122.96 496.377 117.072 495.737 108.24H505.081C506.041 112.528 511.097 115.28 517.625 115.28C523.705 115.28 527.993 112.72 527.993 109.264C527.993 98.576 496.313 109.456 496.313 88.976C496.313 81.104 504.633 76.24 515.641 76.24C527.289 76.24 535.481 81.808 536.185 89.936H526.905C526.137 86.48 521.401 83.664 515.641 83.664C509.369 83.664 505.273 86.032 505.273 89.232C505.273 99.152 536.953 88.784 536.953 109.52ZM541.562 131.152L542.906 114.512H552.25L549.05 131.152H541.562ZM613.266 109.52C613.266 116.944 606.034 122.96 594.066 122.96C582.034 122.96 572.69 117.072 572.049 108.24H581.394C582.354 112.528 587.41 115.28 593.938 115.28C600.018 115.28 604.306 112.72 604.306 109.264C604.306 98.576 572.626 109.456 572.626 88.976C572.626 81.104 580.946 76.24 591.954 76.24C603.602 76.24 611.794 81.808 612.498 89.936H603.218C602.45 86.48 597.714 83.664 591.954 83.664C585.682 83.664 581.586 86.032 581.586 89.232C581.586 99.152 613.266 88.784 613.266 109.52ZM619.659 122V77.2H628.619V95.44H653.131V77.2H662.091V122H653.131V103.696H628.619V122H619.659ZM668.174 99.664C668.174 86.16 678.671 76.24 692.751 76.24C706.767 76.24 717.263 85.648 717.263 99.664C717.263 113.488 706.767 122.96 692.751 122.96C678.735 122.96 668.174 112.976 668.174 99.664ZM677.135 99.664C677.135 108.304 683.663 114.384 692.751 114.384C702.031 114.384 708.303 108.304 708.303 99.664C708.303 90.832 702.031 84.816 692.751 84.816C683.599 84.816 677.135 90.832 677.135 99.664ZM754.511 122L744.591 108.944H732.431V122H723.471V77.2H746.511C756.111 77.2 764.047 83.536 764.047 93.072C764.047 99.344 759.951 104.592 754.383 107.216L765.647 122H754.511ZM755.087 93.072C755.087 88.656 751.503 85.456 746.511 85.456H732.431V100.56H746.511C751.439 100.56 755.087 97.296 755.087 93.072ZM781.965 122V85.456H766.093V77.2H806.669V85.456H790.925V122H781.965ZM11.072 169.664C11.072 178.304 17.6 184.384 26.688 184.384C33.152 184.384 38.208 181.376 40.704 176.512H50.176C47.424 186.56 38.208 192.96 26.688 192.96C12.672 192.96 2.112 182.976 2.112 169.664C2.112 156.16 12.608 146.24 26.688 146.24C38.208 146.24 47.36 152.64 50.176 162.688H40.704C38.272 157.76 33.216 154.816 26.688 154.816C17.536 154.816 11.072 160.832 11.072 169.664ZM53.2995 169.664C53.2995 156.16 63.7955 146.24 77.8755 146.24C91.8915 146.24 102.388 155.648 102.388 169.664C102.388 183.488 91.8915 192.96 77.8755 192.96C63.8595 192.96 53.2995 182.976 53.2995 169.664ZM62.2595 169.664C62.2595 178.304 68.7875 184.384 77.8755 184.384C87.1555 184.384 93.4275 178.304 93.4275 169.664C93.4275 160.832 87.1555 154.816 77.8755 154.816C68.7235 154.816 62.2595 160.832 62.2595 169.664ZM117.556 162.112V192H108.596V147.2H115.764L143.604 176.896V147.2H152.564V192H145.332L117.556 162.112ZM173.715 192V155.456H157.843V147.2H198.419V155.456H182.675V192H173.715ZM203.846 192V147.2H240.838V155.456H212.806V165.44H239.814V173.696H212.806V183.68H240.838V192H203.846ZM257.994 162.112V192H249.034V147.2H256.202L284.042 176.896V147.2H293.002V192H285.77L257.994 162.112ZM314.152 192V155.456H298.28V147.2H338.856V155.456H323.112V192H314.152ZM355.163 192L377.628 147.2H387.612L410.204 192H400.22L394.908 181.44H370.396L365.084 192H355.163ZM374.492 173.248H390.748L382.62 157.12L374.492 173.248ZM422.181 162.112V192H413.221V147.2H420.389L448.229 176.896V147.2H457.189V192H449.957L422.181 162.112ZM465.284 192V147.2H486.468C498.948 147.2 509.636 156.288 509.636 169.536C509.636 182.336 498.308 192 486.468 192H465.284ZM500.676 169.536C500.676 161.408 494.66 155.776 486.468 155.776H474.244V183.424H486.468C494.596 183.424 500.676 177.664 500.676 169.536ZM540.744 163.136V192H531.784V147.2H543.176L557.64 181.312L572.04 147.2H583.432V192H574.472V163.264L562.12 192H553.096L540.744 163.136ZM589.674 169.664C589.674 156.16 600.171 146.24 614.251 146.24C628.267 146.24 638.763 155.648 638.763 169.664C638.763 183.488 628.267 192.96 614.251 192.96C600.235 192.96 589.674 182.976 589.674 169.664ZM598.635 169.664C598.635 178.304 605.163 184.384 614.251 184.384C623.531 184.384 629.803 178.304 629.803 169.664C629.803 160.832 623.531 154.816 614.251 154.816C605.099 154.816 598.635 160.832 598.635 169.664ZM676.011 192L666.091 178.944H653.931V192H644.971V147.2H668.011C677.611 147.2 685.547 153.536 685.547 163.072C685.547 169.344 681.451 174.592 675.883 177.216L687.147 192H676.011ZM676.587 163.072C676.587 158.656 673.003 155.456 668.011 155.456H653.931V170.56H668.011C672.939 170.56 676.587 167.296 676.587 163.072ZM691.096 192V147.2H728.088V155.456H700.056V165.44H727.064V173.696H700.056V183.68H728.088V192H691.096Z" fill="white"/>
</svg>
