<svg xmlns="http://www.w3.org/2000/svg" width="28" height="76" viewBox="0 0 28 76" fill="none">
  <circle cx="14" cy="14" r="14" fill="#84B41E"/>
  <path d="M20.86 20.34H17.62L16.8 18.08H11.08L10.24 20.34H7L12.16 7H15.72L20.86 20.34ZM16.02 15.58L13.94 9.84L11.86 15.58H16.02Z" fill="white"/>
  <circle cx="14" cy="62" r="14" fill="#84B41E"/>
  <path d="M15.5108 68H9V56H15.3129C16.4041 56 17.2494 56.2999 17.8489 56.8996C18.4604 57.4873 18.7662 58.2069 18.7662 59.0585C18.7662 59.7901 18.5683 60.4018 18.1727 60.8936C17.777 61.3853 17.2854 61.6912 16.6978 61.8111C17.3453 61.907 17.8909 62.2369 18.3345 62.8006C18.7782 63.3643 19 64.018 19 64.7616C19 65.6972 18.6942 66.4708 18.0827 67.0825C17.4712 67.6942 16.6139 68 15.5108 68ZM14.7554 60.8036C15.187 60.8036 15.5288 60.6837 15.7806 60.4438C16.0324 60.2039 16.1583 59.8921 16.1583 59.5082C16.1583 59.1244 16.0264 58.8126 15.7626 58.5727C15.5108 58.3208 15.1751 58.1949 14.7554 58.1949H11.554V60.8036H14.7554ZM14.8453 65.7871C15.3249 65.7871 15.7026 65.6672 15.9784 65.4273C16.2542 65.1754 16.3921 64.8336 16.3921 64.4018C16.3921 64.006 16.2542 63.6762 15.9784 63.4123C15.7026 63.1364 15.3249 62.9985 14.8453 62.9985H11.554V65.7871H14.8453Z" fill="white"/>
  <line x1="13.5" y1="44" x2="13.5" y2="32" stroke="#E1E1E1"/>
</svg>