<svg width="80" height="80" viewBox="0 0 80 80" fill="none" xmlns="http://www.w3.org/2000/svg">
<circle cx="40" cy="40" r="40" fill="#F9F9F9"/>
<path d="M39.9998 18.6665C51.7758 18.6665 61.3332 28.2238 61.3332 39.9998C61.3332 51.7758 51.7758 61.3332 39.9998 61.3332C28.2238 61.3332 18.6665 51.7758 18.6665 39.9998C18.6665 28.2238 28.2238 18.6665 39.9998 18.6665ZM27.2496 47.2879C30.3803 51.9612 35.0827 54.9332 40.3405 54.9332C45.5983 54.9332 50.3009 51.9612 53.4315 47.2879C50.002 44.0899 45.3997 42.1332 40.3405 42.1332C35.2814 42.1332 30.6792 44.0899 27.2496 47.2879ZM39.9998 37.8665C43.5346 37.8665 46.3998 35.0011 46.3998 31.4665C46.3998 27.9319 43.5346 25.0665 39.9998 25.0665C36.4651 25.0665 33.5998 27.9319 33.5998 31.4665C33.5998 35.0011 36.4651 37.8665 39.9998 37.8665Z" fill="#B1B1B1"/>
</svg>
