<svg width="28" height="28" viewBox="0 0 28 28" fill="none" xmlns="http://www.w3.org/2000/svg">
<circle cx="14" cy="14" r="14" fill="#84B41E"/>
<path d="M15.5108 20H9V8H15.3129C16.4041 8 17.2494 8.29985 17.8489 8.89955C18.4604 9.48726 18.7662 10.2069 18.7662 11.0585C18.7662 11.7901 18.5683 12.4018 18.1727 12.8936C17.777 13.3853 17.2854 13.6912 16.6978 13.8111C17.3453 13.907 17.8909 14.2369 18.3345 14.8006C18.7782 15.3643 19 16.018 19 16.7616C19 17.6972 18.6942 18.4708 18.0827 19.0825C17.4712 19.6942 16.6139 20 15.5108 20ZM14.7554 12.8036C15.187 12.8036 15.5288 12.6837 15.7806 12.4438C16.0324 12.2039 16.1583 11.8921 16.1583 11.5082C16.1583 11.1244 16.0264 10.8126 15.7626 10.5727C15.5108 10.3208 15.1751 10.1949 14.7554 10.1949H11.554V12.8036H14.7554ZM14.8453 17.7871C15.3249 17.7871 15.7026 17.6672 15.9784 17.4273C16.2542 17.1754 16.3921 16.8336 16.3921 16.4018C16.3921 16.006 16.2542 15.6762 15.9784 15.4123C15.7026 15.1364 15.3249 14.9985 14.8453 14.9985H11.554V17.7871H14.8453Z" fill="white"/>
</svg>
