<svg width="70" height="70" viewBox="0 0 70 70" fill="none" xmlns="http://www.w3.org/2000/svg">
<circle cx="35" cy="35" r="35" fill="#84B41E"/>
<path d="M47 40.8933V45.6081C47 46.3081 46.4588 46.8889 45.7607 46.9383C45.1775 46.9795 44.7017 47 44.3333 47C32.5512 47 23 37.4488 23 25.6667C23 25.2983 23.0206 24.8225 23.0618 24.2393C23.1112 23.5412 23.6919 23 24.3918 23H29.1068C29.449 23 29.7357 23.2592 29.77 23.5997C29.8009 23.9054 29.8296 24.1509 29.8561 24.336C30.1258 26.2196 30.6767 28.0125 31.4649 29.6707C31.5915 29.9369 31.5089 30.2555 31.2691 30.4267L28.3914 32.4824C30.1434 36.5748 33.4252 39.8567 37.5176 41.6087L39.5695 38.7359C39.7429 38.4932 40.0653 38.4097 40.3347 38.5376C41.9928 39.3252 43.7855 39.8755 45.6688 40.1445C45.8528 40.1709 46.0967 40.1993 46.4003 40.23C46.7408 40.2644 47 40.5511 47 40.8933Z" fill="white"/>
</svg>
