<svg width="27" height="26" viewBox="0 0 27 26" fill="none" xmlns="http://www.w3.org/2000/svg">
<mask id="mask0_288_629" style="mask-type:alpha" maskUnits="userSpaceOnUse" x="0" y="2" width="26" height="22">
<path d="M7.97012 20.3093C7.97012 19.8204 7.79715 19.4029 7.45123 19.057C7.1053 18.7111 6.68789 18.5381 6.19898 18.5381C5.71007 18.5381 5.29266 18.7111 4.94673 19.057C4.60081 19.4029 4.42784 19.8204 4.42784 20.3093C4.42784 20.7982 4.60081 21.2156 4.94673 21.5615C5.29266 21.9074 5.71007 22.0804 6.19898 22.0804C6.68789 22.0804 7.1053 21.9074 7.45123 21.5615C7.79715 21.2156 7.97012 20.7982 7.97012 20.3093ZM2.65671 13.2247H7.97012V9.68245H5.78387C5.65472 9.7009 5.55325 9.74241 5.47946 9.80698L2.78124 12.5052C2.71667 12.6159 2.67516 12.7174 2.65671 12.8096V13.2247ZM20.3681 20.3093C20.3681 19.8204 20.1951 19.4029 19.8492 19.057C19.5033 18.7111 19.0858 18.5381 18.5969 18.5381C18.108 18.5381 17.6906 18.7111 17.3447 19.057C16.9988 19.4029 16.8258 19.8204 16.8258 20.3093C16.8258 20.7982 16.9988 21.2156 17.3447 21.5615C17.6906 21.9074 18.108 22.0804 18.5969 22.0804C19.0858 22.0804 19.5033 21.9074 19.8492 21.5615C20.1951 21.2156 20.3681 20.7982 20.3681 20.3093ZM22.1392 11.0108V8.3541C22.1392 8.22495 22.0977 8.11887 22.0147 8.03584C21.9317 7.95282 21.8256 7.91131 21.6964 7.91131H18.5969V4.81182C18.5969 4.68268 18.5554 4.57659 18.4724 4.49357C18.3894 4.41055 18.2833 4.36904 18.1542 4.36904H15.4975C15.3683 4.36904 15.2622 4.41055 15.1792 4.49357C15.0962 4.57659 15.0547 4.68268 15.0547 4.81182V7.91131H11.9552C11.826 7.91131 11.7199 7.95282 11.6369 8.03584C11.5539 8.11887 11.5124 8.22495 11.5124 8.3541V11.0108C11.5124 11.1399 11.5539 11.246 11.6369 11.3291C11.7199 11.4121 11.826 11.4536 11.9552 11.4536H15.0547V14.5531C15.0547 14.6822 15.0962 14.7883 15.1792 14.8713C15.2622 14.9543 15.3683 14.9959 15.4975 14.9959H18.1542C18.2833 14.9959 18.3894 14.9543 18.4724 14.8713C18.5554 14.7883 18.5969 14.6822 18.5969 14.5531V11.4536H21.6964C21.8256 11.4536 21.9317 11.4121 22.0147 11.3291C22.0977 11.246 22.1392 11.1399 22.1392 11.0108ZM25.6815 3.48347V19.4237C25.6815 19.6635 25.5939 19.8711 25.4186 20.0464C25.2433 20.2216 25.0358 20.3093 24.7959 20.3093H22.1392C22.1392 21.2871 21.7933 22.1219 21.1014 22.8138C20.4096 23.5056 19.5748 23.8515 18.5969 23.8515C17.6191 23.8515 16.7843 23.5056 16.0924 22.8138C15.4006 22.1219 15.0547 21.2871 15.0547 20.3093H9.74125C9.74125 21.2871 9.39533 22.1219 8.70348 22.8138C8.01163 23.5056 7.1768 23.8515 6.19898 23.8515C5.22117 23.8515 4.38633 23.5056 3.69448 22.8138C3.00263 22.1219 2.65671 21.2871 2.65671 20.3093H0.885569C0.645727 20.3093 0.438172 20.2216 0.262903 20.0464C0.0876344 19.8711 0 19.6635 0 19.4237C0 19.1839 0.0876344 18.9763 0.262903 18.801C0.438172 18.6258 0.645727 18.5381 0.885569 18.5381V12.7819C0.885569 12.5421 0.945529 12.2746 1.06545 11.9794C1.18537 11.6842 1.33297 11.449 1.50823 11.2737L4.24796 8.53398C4.42323 8.35871 4.65846 8.21111 4.95365 8.09119C5.24884 7.97127 5.51635 7.91131 5.7562 7.91131H7.97012V3.48347C7.97012 3.24363 8.05775 3.03607 8.23302 2.8608C8.40829 2.68553 8.61584 2.5979 8.85569 2.5979H24.7959C25.0358 2.5979 25.2433 2.68553 25.4186 2.8608C25.5939 3.03607 25.6815 3.24363 25.6815 3.48347Z" fill="#007AFF"/>
</mask>
<g mask="url(#mask0_288_629)">
<path d="M7.97012 20.309C7.97012 19.8201 7.79715 19.4027 7.45123 19.0568C7.1053 18.7109 6.68789 18.5379 6.19898 18.5379C5.71007 18.5379 5.29266 18.7109 4.94673 19.0568C4.60081 19.4027 4.42784 19.8201 4.42784 20.309C4.42784 20.7979 4.60081 21.2153 4.94673 21.5613C5.29266 21.9072 5.71007 22.0802 6.19898 22.0802C6.68789 22.0802 7.1053 21.9072 7.45123 21.5613C7.79715 21.2153 7.97012 20.7979 7.97012 20.309ZM2.65671 13.2245H7.97012V9.6822H5.78387C5.65472 9.70065 5.55325 9.74216 5.47946 9.80674L2.78124 12.505C2.71667 12.6156 2.67516 12.7171 2.65671 12.8094V13.2245ZM20.3681 20.309C20.3681 19.8201 20.1951 19.4027 19.8492 19.0568C19.5033 18.7109 19.0858 18.5379 18.5969 18.5379C18.108 18.5379 17.6906 18.7109 17.3447 19.0568C16.9988 19.4027 16.8258 19.8201 16.8258 20.309C16.8258 20.7979 16.9988 21.2153 17.3447 21.5613C17.6906 21.9072 18.108 22.0802 18.5969 22.0802C19.0858 22.0802 19.5033 21.9072 19.8492 21.5613C20.1951 21.2153 20.3681 20.7979 20.3681 20.309ZM22.1392 11.0106V8.35385C22.1392 8.22471 22.0977 8.11862 22.0147 8.0356C21.9317 7.95258 21.8256 7.91107 21.6964 7.91107H18.5969V4.81158C18.5969 4.68243 18.5554 4.57635 18.4724 4.49333C18.3894 4.4103 18.2833 4.36879 18.1542 4.36879H15.4975C15.3683 4.36879 15.2622 4.4103 15.1792 4.49333C15.0962 4.57635 15.0547 4.68243 15.0547 4.81158V7.91107H11.9552C11.826 7.91107 11.7199 7.95258 11.6369 8.0356C11.5539 8.11862 11.5124 8.22471 11.5124 8.35385V11.0106C11.5124 11.1397 11.5539 11.2458 11.6369 11.3288C11.7199 11.4118 11.826 11.4533 11.9552 11.4533H15.0547V14.5528C15.0547 14.682 15.0962 14.7881 15.1792 14.8711C15.2622 14.9541 15.3683 14.9956 15.4975 14.9956H18.1542C18.2833 14.9956 18.3894 14.9541 18.4724 14.8711C18.5554 14.7881 18.5969 14.682 18.5969 14.5528V11.4533H21.6964C21.8256 11.4533 21.9317 11.4118 22.0147 11.3288C22.0977 11.2458 22.1392 11.1397 22.1392 11.0106ZM25.6815 3.48322V19.4235C25.6815 19.6633 25.5939 19.8709 25.4186 20.0461C25.2433 20.2214 25.0358 20.309 24.7959 20.309H22.1392C22.1392 21.2868 21.7933 22.1217 21.1014 22.8135C20.4096 23.5054 19.5748 23.8513 18.5969 23.8513C17.6191 23.8513 16.7843 23.5054 16.0924 22.8135C15.4006 22.1217 15.0547 21.2868 15.0547 20.309H9.74125C9.74125 21.2868 9.39533 22.1217 8.70348 22.8135C8.01163 23.5054 7.1768 23.8513 6.19898 23.8513C5.22117 23.8513 4.38633 23.5054 3.69448 22.8135C3.00263 22.1217 2.65671 21.2868 2.65671 20.309H0.885569C0.645727 20.309 0.438172 20.2214 0.262903 20.0461C0.0876344 19.8709 0 19.6633 0 19.4235C0 19.1836 0.0876344 18.9761 0.262903 18.8008C0.438172 18.6255 0.645727 18.5379 0.885569 18.5379V12.7817C0.885569 12.5419 0.945529 12.2743 1.06545 11.9791C1.18537 11.684 1.33297 11.4487 1.50823 11.2735L4.24796 8.53373C4.42323 8.35846 4.65846 8.21087 4.95365 8.09095C5.24884 7.97103 5.51635 7.91107 5.7562 7.91107H7.97012V3.48322C7.97012 3.24338 8.05775 3.03583 8.23302 2.86056C8.40829 2.68529 8.61584 2.59766 8.85569 2.59766H24.7959C25.0358 2.59766 25.2433 2.68529 25.4186 2.86056C25.5939 3.03583 25.6815 3.24338 25.6815 3.48322Z" fill="#6A21C8"/>
</g>
<mask id="mask1_288_629" style="mask-type:alpha" maskUnits="userSpaceOnUse" x="0" y="1" width="26" height="23">
<path d="M7.97012 19.4826C7.97012 18.9937 7.79715 18.5763 7.45123 18.2304C7.1053 17.8844 6.68789 17.7115 6.19898 17.7115C5.71007 17.7115 5.29266 17.8844 4.94673 18.2304C4.60081 18.5763 4.42784 18.9937 4.42784 19.4826C4.42784 19.9715 4.60081 20.3889 4.94673 20.7349C5.29266 21.0808 5.71007 21.2537 6.19898 21.2537C6.68789 21.2537 7.1053 21.0808 7.45123 20.7349C7.79715 20.3889 7.97012 19.9715 7.97012 19.4826ZM2.65671 12.3981H7.97012V8.85579H5.78387C5.65472 8.87424 5.55325 8.91575 5.47946 8.98032L2.78124 11.6785C2.71667 11.7892 2.67516 11.8907 2.65671 11.983V12.3981ZM20.3681 19.4826C20.3681 18.9937 20.1951 18.5763 19.8492 18.2304C19.5033 17.8844 19.0858 17.7115 18.5969 17.7115C18.108 17.7115 17.6906 17.8844 17.3447 18.2304C16.9988 18.5763 16.8258 18.9937 16.8258 19.4826C16.8258 19.9715 16.9988 20.3889 17.3447 20.7349C17.6906 21.0808 18.108 21.2537 18.5969 21.2537C19.0858 21.2537 19.5033 21.0808 19.8492 20.7349C20.1951 20.3889 20.3681 19.9715 20.3681 19.4826ZM22.1392 10.1841V7.52744C22.1392 7.39829 22.0977 7.29221 22.0147 7.20918C21.9317 7.12616 21.8256 7.08465 21.6964 7.08465H18.5969V3.98516C18.5969 3.85602 18.5554 3.74993 18.4724 3.66691C18.3894 3.58389 18.2833 3.54238 18.1542 3.54238H15.4974C15.3683 3.54238 15.2622 3.58389 15.1792 3.66691C15.0962 3.74993 15.0547 3.85602 15.0547 3.98516V7.08465H11.9552C11.826 7.08465 11.7199 7.12616 11.6369 7.20918C11.5539 7.29221 11.5124 7.39829 11.5124 7.52744V10.1841C11.5124 10.3133 11.5539 10.4194 11.6369 10.5024C11.7199 10.5854 11.826 10.6269 11.9552 10.6269H15.0547V13.7264C15.0547 13.8556 15.0962 13.9616 15.1792 14.0447C15.2622 14.1277 15.3683 14.1692 15.4974 14.1692H18.1542C18.2833 14.1692 18.3894 14.1277 18.4724 14.0447C18.5554 13.9616 18.5969 13.8556 18.5969 13.7264V10.6269H21.6964C21.8256 10.6269 21.9317 10.5854 22.0147 10.5024C22.0977 10.4194 22.1392 10.3133 22.1392 10.1841ZM25.6815 2.65681V18.597C25.6815 18.8369 25.5939 19.0444 25.4186 19.2197C25.2433 19.395 25.0358 19.4826 24.7959 19.4826H22.1392C22.1392 20.4604 21.7933 21.2953 21.1014 21.9871C20.4096 22.679 19.5748 23.0249 18.5969 23.0249C17.6191 23.0249 16.7843 22.679 16.0924 21.9871C15.4006 21.2953 15.0547 20.4604 15.0547 19.4826H9.74125C9.74125 20.4604 9.39533 21.2953 8.70348 21.9871C8.01163 22.679 7.1768 23.0249 6.19898 23.0249C5.22116 23.0249 4.38633 22.679 3.69448 21.9871C3.00263 21.2953 2.65671 20.4604 2.65671 19.4826H0.885569C0.645727 19.4826 0.438172 19.395 0.262903 19.2197C0.0876344 19.0444 0 18.8369 0 18.597C0 18.3572 0.0876344 18.1496 0.262903 17.9744C0.438172 17.7991 0.645727 17.7115 0.885569 17.7115V11.9553C0.885569 11.7154 0.945529 11.4479 1.06545 11.1527C1.18537 10.8575 1.33297 10.6223 1.50823 10.447L4.24796 7.70732C4.42323 7.53205 4.65846 7.38445 4.95365 7.26453C5.24884 7.14461 5.51635 7.08465 5.7562 7.08465H7.97012V2.65681C7.97012 2.41697 8.05775 2.20941 8.23302 2.03414C8.40829 1.85887 8.61584 1.77124 8.85569 1.77124H24.7959C25.0358 1.77124 25.2433 1.85887 25.4186 2.03414C25.5939 2.20941 25.6815 2.41697 25.6815 2.65681Z" fill="#007AFF"/>
</mask>
<g mask="url(#mask1_288_629)">
<path d="M7.97012 19.4824C7.97012 18.9935 7.79715 18.576 7.45123 18.2301C7.1053 17.8842 6.68789 17.7112 6.19898 17.7112C5.71007 17.7112 5.29266 17.8842 4.94673 18.2301C4.60081 18.576 4.42784 18.9935 4.42784 19.4824C4.42784 19.9713 4.60081 20.3887 4.94673 20.7346C5.29266 21.0805 5.71007 21.2535 6.19898 21.2535C6.68789 21.2535 7.1053 21.0805 7.45123 20.7346C7.79715 20.3887 7.97012 19.9713 7.97012 19.4824ZM2.65671 12.3978H7.97012V8.85554H5.78387C5.65472 8.87399 5.55325 8.9155 5.47946 8.98008L2.78124 11.6783C2.71667 11.789 2.67516 11.8905 2.65671 11.9827V12.3978ZM20.3681 19.4824C20.3681 18.9935 20.1951 18.576 19.8492 18.2301C19.5033 17.8842 19.0858 17.7112 18.5969 17.7112C18.108 17.7112 17.6906 17.8842 17.3447 18.2301C16.9988 18.576 16.8258 18.9935 16.8258 19.4824C16.8258 19.9713 16.9988 20.3887 17.3447 20.7346C17.6906 21.0805 18.108 21.2535 18.5969 21.2535C19.0858 21.2535 19.5033 21.0805 19.8492 20.7346C20.1951 20.3887 20.3681 19.9713 20.3681 19.4824ZM22.1392 10.1839V7.52719C22.1392 7.39805 22.0977 7.29196 22.0147 7.20894C21.9317 7.12592 21.8256 7.08441 21.6964 7.08441H18.5969V3.98492C18.5969 3.85577 18.5554 3.74969 18.4724 3.66667C18.3894 3.58364 18.2833 3.54213 18.1542 3.54213H15.4974C15.3683 3.54213 15.2622 3.58364 15.1792 3.66667C15.0962 3.74969 15.0547 3.85577 15.0547 3.98492V7.08441H11.9552C11.826 7.08441 11.7199 7.12592 11.6369 7.20894C11.5539 7.29196 11.5124 7.39805 11.5124 7.52719V10.1839C11.5124 10.313 11.5539 10.4191 11.6369 10.5021C11.7199 10.5852 11.826 10.6267 11.9552 10.6267H15.0547V13.7262C15.0547 13.8553 15.0962 13.9614 15.1792 14.0444C15.2622 14.1274 15.3683 14.169 15.4974 14.169H18.1542C18.2833 14.169 18.3894 14.1274 18.4724 14.0444C18.5554 13.9614 18.5969 13.8553 18.5969 13.7262V10.6267H21.6964C21.8256 10.6267 21.9317 10.5852 22.0147 10.5021C22.0977 10.4191 22.1392 10.313 22.1392 10.1839ZM25.6815 2.65656V18.5968C25.6815 18.8366 25.5939 19.0442 25.4186 19.2195C25.2433 19.3947 25.0358 19.4824 24.7959 19.4824H22.1392C22.1392 20.4602 21.7933 21.295 21.1014 21.9869C20.4096 22.6787 19.5748 23.0246 18.5969 23.0246C17.6191 23.0246 16.7843 22.6787 16.0924 21.9869C15.4006 21.295 15.0547 20.4602 15.0547 19.4824H9.74125C9.74125 20.4602 9.39533 21.295 8.70348 21.9869C8.01163 22.6787 7.1768 23.0246 6.19898 23.0246C5.22116 23.0246 4.38633 22.6787 3.69448 21.9869C3.00263 21.295 2.65671 20.4602 2.65671 19.4824H0.885569C0.645727 19.4824 0.438172 19.3947 0.262903 19.2195C0.0876344 19.0442 0 18.8366 0 18.5968C0 18.357 0.0876344 18.1494 0.262903 17.9741C0.438172 17.7989 0.645727 17.7112 0.885569 17.7112V11.955C0.885569 11.7152 0.945529 11.4477 1.06545 11.1525C1.18537 10.8573 1.33297 10.6221 1.50823 10.4468L4.24796 7.70707C4.42323 7.5318 4.65846 7.38421 4.95365 7.26429C5.24884 7.14437 5.51635 7.08441 5.7562 7.08441H7.97012V2.65656C7.97012 2.41672 8.05775 2.20917 8.23302 2.0339C8.40829 1.85863 8.61584 1.771 8.85569 1.771H24.7959C25.0358 1.771 25.2433 1.85863 25.4186 2.0339C25.5939 2.20917 25.6815 2.41672 25.6815 2.65656Z" fill="#007AFF"/>
<path d="M10.3344 -22.2921L34.7351 15.565L15.0082 27.0922L-6.53121 19.4705L10.3344 -22.2921Z" fill="#D9D9D9"/>
<path d="M10.4492 -21.0415L36.5127 16.6582L15.2018 29.1763L-8.07906 20.8784L10.4492 -21.0415Z" fill="#4D0AA2"/>
<mask id="mask2_288_629" style="mask-type:alpha" maskUnits="userSpaceOnUse" x="-7" y="-23" width="23" height="51">
<path d="M10.3354 -22.2921L14.103 17.5177L15.0092 27.0922L-6.53023 19.4705L10.3354 -22.2921Z" fill="url(#paint0_linear_288_629)"/>
</mask>
<g mask="url(#mask2_288_629)">
<path d="M11.3162 34.9499C29.9972 33.1819 43.7079 16.6047 41.9399 -2.07627C40.172 -20.7573 23.5948 -34.468 4.91379 -32.7C-13.7672 -30.932 -27.4779 -14.3548 -25.7099 4.32615C-23.9419 23.0071 -7.36478 36.7178 11.3162 34.9499Z" fill="#D9D9D9"/>
<path d="M10.3354 -22.2923L14.103 17.5175L15.0092 27.092L-6.53023 19.4702L10.3354 -22.2923Z" fill="url(#paint1_linear_288_629)"/>
</g>
<path d="M10.335 -22.292L14.1124 17.6214L15.0087 27.0923L34.7457 15.6686L10.335 -22.292Z" fill="url(#paint2_linear_288_629)"/>
<mask id="mask3_288_629" style="mask-type:alpha" maskUnits="userSpaceOnUse" x="-7" y="-23" width="42" height="51">
<path d="M10.3354 -22.2921L34.7361 15.565L15.0092 27.0922L-6.53023 19.4705L10.3354 -22.2921Z" fill="#D9D9D9"/>
</mask>
<g mask="url(#mask3_288_629)">
<path opacity="0.34" d="M8.74716 22.2245C19.9557 21.1637 27.6089 5.15983 25.8409 -13.5212C24.0729 -32.2021 13.5533 -46.4861 2.34474 -45.4254C-8.86384 -44.3646 -16.517 -28.3607 -14.749 -9.67971C-12.981 9.00128 -2.46143 23.2853 8.74716 22.2245Z" fill="url(#paint3_radial_288_629)"/>
</g>
</g>
<defs>
<linearGradient id="paint0_linear_288_629" x1="12.6263" y1="-1.69083" x2="-7.66861" y2="0.229892" gradientUnits="userSpaceOnUse">
<stop stop-color="#B07EEF"/>
<stop offset="1" stop-color="#A367EE"/>
</linearGradient>
<linearGradient id="paint1_linear_288_629" x1="12.6263" y1="-1.69108" x2="-7.66861" y2="0.229648" gradientUnits="userSpaceOnUse">
<stop stop-color="#B07EEF"/>
<stop offset="1" stop-color="#A367EE"/>
</linearGradient>
<linearGradient id="paint2_linear_288_629" x1="12.2821" y1="-1.65819" x2="32.9097" y2="-3.6104" gradientUnits="userSpaceOnUse">
<stop stop-color="#8944E1"/>
<stop offset="1" stop-color="#7116E4"/>
</linearGradient>
<radialGradient id="paint3_radial_288_629" cx="0" cy="0" r="1" gradientUnits="userSpaceOnUse" gradientTransform="translate(5.54595 -11.6004) rotate(84.5936) scale(33.9761 20.3856)">
<stop stop-color="white"/>
<stop offset="1" stop-color="white" stop-opacity="0"/>
</radialGradient>
</defs>
</svg>
