<svg width="34" height="34" viewBox="0 0 34 34" fill="none" xmlns="http://www.w3.org/2000/svg">
<path d="M16.9999 2.83313C24.8199 2.83313 31.1666 9.1798 31.1666 16.9998C31.1666 24.8198 24.8199 31.1665 16.9999 31.1665C9.17992 31.1665 2.83325 24.8198 2.83325 16.9998C2.83325 9.1798 9.17992 2.83313 16.9999 2.83313ZM8.53296 21.8396C10.6119 24.9429 13.7347 26.9165 17.2262 26.9165C20.7177 26.9165 23.8404 24.9429 25.9194 21.8396C23.642 19.7158 20.5858 18.4165 17.2262 18.4165C13.8666 18.4165 10.8104 19.7158 8.53296 21.8396ZM16.9999 15.5831C19.3472 15.5831 21.2499 13.6803 21.2499 11.3331C21.2499 8.98593 19.3472 7.08313 16.9999 7.08313C14.6526 7.08313 12.7499 8.98593 12.7499 11.3331C12.7499 13.6803 14.6526 15.5831 16.9999 15.5831Z" fill="#B1B1B1"/>
</svg>
